<?xml version="1.0" encoding="UTF-8" standalone="no"?>
<svg
   version="1.2"
   width="1445"
   height="1445"
   id="svg2"
   sodipodi:docname="onetimesecret.svg"
   inkscape:version="1.4.2 (2aeb623e1d, 2025-05-12)"
   xmlns:inkscape="http://www.inkscape.org/namespaces/inkscape"
   xmlns:sodipodi="http://sodipodi.sourceforge.net/DTD/sodipodi-0.dtd"
   xmlns="http://www.w3.org/2000/svg"
   xmlns:svg="http://www.w3.org/2000/svg">
  <defs
     id="defs2">
    <inkscape:path-effect
       effect="powerclip"
       message=""
       id="path-effect3"
       is_visible="true"
       lpeversion="1"
       inverse="true"
       flatten="false"
       hide_clip="false" />
    <clipPath
       clipPathUnits="userSpaceOnUse"
       id="clipPath2">
      <path
         d="m 707.17578,357.79687 c 1.12,-0.01 2.23,-0.01 3.38,-0.02 37.77,-0.19 73.43,2.75999 110.44,10.21999 1.04,0.21001 2.08,0.42 3.14,0.63 44.39,9.29 92.58,28.51001 126.87,58.63 1.59,1.39001 3.24,2.7 4.9,3.99 5.66,4.68 9.6,8.85 10.6,16.32 0.34,4.29 0.43,8.56 0.47,12.86 0.06,1.9 0.13,3.79001 0.2,5.69 0.18,5.03001 0.29,10.06 0.38,15.09 0.11,5.19001 0.29,10.39 0.46,15.58 0.26,8.12001 0.49,16.24001 0.69,24.35001 0.3,11.92999 0.82,23.84 1.41,35.75 0.74,15.38 1.19,30.71999 0.88,46.11 -2.65,0.89 -4.63,1.23 -7.38,1.44999 -0.89,0.08 -1.77,0.15 -2.69,0.22 -0.95,0.08 -1.91,0.16 -2.9,0.24001 -1,0.08 -2,0.15999 -3.03,0.25 -3.21,0.25999 -6.41,0.51999 -9.62,0.77999 -17.47,1.41 -17.47,1.41 -34.9,3.31001 -9.09,1.10999 -18.22,1.83999 -27.34,2.60999 -3.16,0.27001 -6.31,0.54001 -9.47,0.82 -2.03,0.17 -4.07,0.35001 -6.1,0.52 -0.93,0.08 -1.86,0.16 -2.82,0.24 -5.6,0.47001 -11.12,0.64 -16.75,0.56001 -2.14,-12.75 -3.82,-25.5 -5.18,-38.35 -0.32,-2.96001 -0.66,-5.92 -1,-8.88 -1.85,-16.34001 -1.85,-16.34001 -2.28,-24.49 -0.21,-8.99001 -0.21,-8.99001 -3.87,-16.92001 -3.45,-3.04 -7.31,-4.82 -11.55,-6.49 -2.12,-0.86999 -4.11,-1.85999 -6.14,-2.95 -30.48,-16.26999 -63.8,-21.25 -98.04,-21.35 -0.84,-0.01 -1.69,-0.02 -2.56,-0.02 -28.09,-0.13999 -58.69,4.72001 -81.38,22.45001 -0.88,0.59999 -1.77,1.19999 -2.68,1.81999 -10.64,10.05 -16.3,24.18001 -16.71,38.62 -0.01,1.99 -0.02,3.98 0,5.98 0.02,2.01 0,4.03 -0.02,6.05 0.06,18.46 5.63,35.31001 18.58,48.79001 21.79,20.28999 55.95,28.79999 83.83,36.74 1.1,0.31999 1.1,0.31999 2.23,0.65 8.07,2.35 16.2,4.26 24.44,5.94999 0.71,0.14001 1.42,0.29 2.15,0.44 0.73,0.15 1.47,0.3 2.22,0.45001 1.55,0.31999 3.1,0.62999 4.65,0.94999 0.78,0.16 1.56,0.32001 2.37,0.48 23.08,4.75 45.88,10.69 68.7,16.5 3.98,1.01 7.96,2.01 11.95,2.99001 8.86,2.17999 17.64,4.40999 26.29,7.34 1,0.33999 2,0.67999 3.03,1.03 30.81,10.64999 59.73,27.01999 83.72,49.14999 2.02,1.86 4.09,3.62 6.19,5.39 31.52,27.71001 45.02002,70.07 49.06002,110.68001 0.1,0.93999 0.19,1.87999 0.29,2.84999 0.81,9.06001 0.9,18.09 0.9,27.18001 0,2.56999 0.02,5.14999 0.04,7.72 0.08,24.37 -2.53,50.04999 -10.23002,73.25 -0.42,1.38 -0.84,2.76 -1.27,4.14 -8.12,26.02999 -20.97,50.62003 -39.66,70.64003 -1.86,2 -3.62,4.06 -5.38,6.16 -26.12,29.85 -64.13,48.39 -100.91,61.1 -2.27,0.79 -4.52,1.6 -6.76,2.43 -17.43,6.27 -35.96,9.37 -54.2,12.28 -1.22,0.2 -2.44,0.4 -3.7,0.6 -21.6,3.31 -43.2,3.98 -65.01,3.91 -3.62,-0.01 -7.23,0 -10.85,0.01 -23.04,0.06 -46.06,-0.63 -68.9,-3.93 -2.94,-0.42 -5.89,-0.81 -8.84,-1.21 -13.04,-1.78 -25.97,-3.75 -38.83,-6.55 -3.02,-0.65 -6.05,-1.28 -9.07,-1.92 -48.7,-10.35 -104.37,-27.42 -140.62,-63.66 0.17,-11.49 1.76,-22.93 3.25,-34.31 0.41,-3.1 0.81,-6.2 1.21,-9.3 0.11,-0.87 0.22,-1.74 0.34,-2.64 1.13,-8.98003 2.16,-17.97003 3.2,-26.97003 2.65,-23.04 5.51,-46.05001 8.45,-69.06001 0.63,-4.95999 1.26,-9.93 1.89,-14.89 1.22,-9.61 2.44,-19.22 3.66,-28.82999 7.53,-0.15001 14.88,0.44999 22.37,1.17999 1.98,0.18 3.96,0.37 5.94,0.56001 2.81,0.26 5.61,0.54 8.42,0.80999 3.6,0.34 7.21,0.69001 10.81,1.03 4.35,0.41001 8.7,0.83001 13.05,1.24 8.65,0.83001 17.3,1.64 25.96,2.44001 1.5,0.14 1.5,0.14 3.04,0.27999 3.72,0.34001 7.44,0.68 11.16,1.02 2.47,0.23 4.94,0.45001 7.41,0.68001 0.71,0.06 1.41,0.13 2.13,0.18999 4.27,0.4 8.46,0.96001 12.71,1.57001 0,30.35999 0,60.71999 0,92 1.98,0.66 3.96,1.31999 6,2 1.56,0.69999 3.1,1.41999 4.62,2.17999 0.85,0.41 1.69,0.82001 2.56,1.25 0.89,0.44001 1.78,0.87 2.7,1.32001 8.89,4.28999 17.74,8.17999 27.12,11.25 0.98,0.32999 0.98,0.32999 1.97,0.66999 37.85,12.51004 82.06,10.43 121.03,5.33001 1.03,-0.13 2.07,-0.25 3.13,-0.39001 22.69,-2.94 51.81,-9.01 67.23,-27.42 16.01,-21.89 18.46,-49.15999 15.24,-75.52 -3.67,-22.18999 -13.01,-41.90999 -31.31,-55.72 -37.49,-24.61 -87.83,-34.37 -131.41,-41.9 -27.67,-4.82999 -55.05,-11.74 -81.88,-20.04999 -0.94,-0.29 -0.94,-0.29 -1.9,-0.59 -38.35,-11.89 -70.89,-28.54001 -100.1,-56.41 -0.66,-0.61001 -1.33,-1.22 -2.01,-1.85 -17.04,-16.12 -27.95,-38.80001 -33.99,-61.15 -0.2,-0.75 -0.41,-1.51 -0.62,-2.29 -0.69,-2.58001 -1.35,-5.18 -2,-7.77001 -0.21,-0.77999 -0.41,-1.57 -0.63,-2.37 -4.07,-16.78 -4.09,-34.24 -4.06,-51.4 0,-3.39999 -0.02,-6.8 -0.05,-10.18999 -0.15,-54.14001 15.09,-105.65001 53.36,-144.98001 41.7,-41.87 106.69,-63.82 164,-72 0.69,-0.1 1.38,-0.2 2.09,-0.3 12.68,-1.84 25.28,-2.85 38.09,-2.9 z"
         fill="#fefefe"
         id="path3"
         style="display:none" />
      <path
         id="lpe_path-effect3"
         class="powerclip"
         d="M -5,-5 H 1450 V 1450 H -5 Z m 712.17578,362.79687 v -1e-5 c -12.81,0.05 -25.41,1.06 -38.09,2.9 -0.71,0.1 -1.4,0.2 -2.09,0.3 -57.31,8.18 -122.3,30.13 -164,72 -38.27,39.33 -53.51,90.84 -53.36,144.98001 0.03,3.38999 0.05,6.79 0.05,10.18999 -0.03,17.16 -0.01,34.62 4.06,51.4 0.22,0.8 0.42,1.59001 0.63,2.37 0.65,2.59001 1.31,5.19 2,7.77001 0.21,0.78 0.42,1.54 0.62,2.29 6.04,22.34999 16.95,45.03 33.99,61.15 0.68,0.63 1.35,1.23999 2.01,1.85 29.21,27.86999 61.75,44.52 100.1,56.41 0.96,0.3 0.96,0.3 1.9,0.59 26.83,8.30999 54.21,15.22 81.88,20.04999 43.58,7.53 93.92,17.29 131.41,41.9 18.3,13.81001 27.64,33.53001 31.31,55.72 3.22,26.36001 0.77,53.63 -15.24,75.52 -15.42,18.41 -44.54,24.48 -67.23,27.42 -1.06,0.14001 -2.1,0.26001 -3.13,0.39001 -38.97,5.09999 -83.18,7.18003 -121.03,-5.33001 -0.99,-0.34 -0.99,-0.34 -1.97,-0.66999 -9.38,-3.07001 -18.23,-6.96001 -27.12,-11.25 -0.92,-0.45001 -1.81,-0.88 -2.7,-1.32001 -0.87,-0.42999 -1.71,-0.84 -2.56,-1.25 -1.52,-0.76 -3.06,-1.48 -4.62,-2.17999 -2.04,-0.68001 -4.02,-1.34 -6,-2 0,-31.28001 0,-61.64001 0,-92 -4.25,-0.61 -8.44,-1.17001 -12.71,-1.57001 -0.72,-0.06 -1.42,-0.12999 -2.13,-0.18999 -2.47,-0.23 -4.94,-0.45001 -7.41,-0.68001 -3.72,-0.34 -7.44,-0.67999 -11.16,-1.02 -1.54,-0.13999 -1.54,-0.13999 -3.04,-0.27999 -8.66,-0.80001 -17.31,-1.61 -25.96,-2.44001 -4.35,-0.40999 -8.7,-0.82999 -13.05,-1.24 -3.6,-0.33999 -7.21,-0.69 -10.81,-1.03 -2.81,-0.26999 -5.61,-0.54999 -8.42,-0.80999 -1.98,-0.19001 -3.96,-0.38001 -5.94,-0.56001 -7.49,-0.73 -14.84,-1.33 -22.37,-1.17999 -1.22,9.60999 -2.44,19.21999 -3.66,28.82999 -0.63,4.96 -1.26,9.93001 -1.89,14.89 -2.94,23.01 -5.8,46.02001 -8.45,69.06001 -1.04,9 -2.07,17.99 -3.2,26.97003 -0.12,0.9 -0.23,1.77 -0.34,2.64 -0.4,3.1 -0.8,6.2 -1.21,9.3 -1.49,11.38 -3.08,22.82 -3.25,34.31 36.25,36.24 91.92,53.31 140.62,63.66 3.02,0.64 6.05,1.27 9.07,1.92 12.86,2.8 25.79,4.77 38.83,6.55 2.95,0.4 5.9,0.79 8.84,1.21 22.84,3.3 45.86,3.99 68.9,3.93 3.62,-0.01 7.23,-0.02 10.85,-0.01 21.81,0.07 43.41,-0.6 65.01,-3.91 1.26,-0.2 2.48,-0.4 3.7,-0.6 18.24,-2.91 36.77,-6.01 54.2,-12.28 2.24,-0.83 4.49,-1.64 6.76,-2.43 36.78,-12.71 74.79,-31.25 100.91,-61.1 1.76,-2.1 3.52,-4.16 5.38,-6.16 18.69,-20.02 31.54,-44.61004 39.66,-70.64003 0.43,-1.38 0.85,-2.76 1.27,-4.14 7.70002,-23.20001 10.31002,-48.88 10.23002,-73.25 -0.02,-2.57001 -0.04,-5.15001 -0.04,-7.72 0,-9.09001 -0.09,-18.12 -0.9,-27.18001 -0.1,-0.97 -0.19,-1.91 -0.29,-2.84999 -4.04,-40.61001 -17.54002,-82.97 -49.06002,-110.68001 -2.1,-1.77 -4.17,-3.53 -6.19,-5.39 -23.99,-22.13 -52.91,-38.5 -83.72,-49.14999 -1.03,-0.35001 -2.03,-0.69001 -3.03,-1.03 -8.65,-2.93001 -17.43,-5.16001 -26.29,-7.34 -3.99,-0.98001 -7.97,-1.98001 -11.95,-2.99001 -22.82,-5.81 -45.62,-11.75 -68.7,-16.5 -0.81,-0.15999 -1.59,-0.32 -2.37,-0.48 -1.55,-0.32 -3.1,-0.63 -4.65,-0.94999 -0.75,-0.15001 -1.49,-0.30001 -2.22,-0.45001 -0.73,-0.15 -1.44,-0.29999 -2.15,-0.44 -8.24,-1.68999 -16.37,-3.59999 -24.44,-5.94999 -1.13,-0.33001 -1.13,-0.33001 -2.23,-0.65 -27.88,-7.94001 -62.04,-16.45001 -83.83,-36.74 -12.95,-13.48 -18.52,-30.33001 -18.58,-48.79001 0.02,-2.02 0.04,-4.04 0.02,-6.05 -0.02,-2 -0.01,-3.99 0,-5.98 0.41,-14.43999 6.07,-28.57 16.71,-38.62 0.91,-0.62 1.8,-1.22 2.68,-1.81999 22.69,-17.73 53.29,-22.59 81.38,-22.45001 0.87,0 1.72,0.01 2.56,0.02 34.24,0.1 67.56,5.08001 98.04,21.35 2.03,1.09001 4.02,2.08001 6.14,2.95 4.24,1.67 8.1,3.45 11.55,6.49 3.66,7.93 3.66,7.93 3.87,16.92001 0.43,8.14999 0.43,8.14999 2.28,24.49 0.34,2.96 0.68,5.91999 1,8.88 1.36,12.85 3.04,25.6 5.18,38.35 5.63,0.08 11.15,-0.09 16.75,-0.56001 0.96,-0.08 1.89,-0.16 2.82,-0.24 2.03,-0.16999 4.07,-0.35 6.1,-0.52 3.16,-0.27999 6.31,-0.54999 9.47,-0.82 9.12,-0.77 18.25,-1.5 27.34,-2.60999 17.43,-1.90001 17.43,-1.90001 34.9,-3.31001 3.21,-0.26 6.41,-0.52 9.62,-0.77999 1.03,-0.09 2.03,-0.17 3.03,-0.25 0.99,-0.08 1.95,-0.16001 2.9,-0.24001 0.92,-0.07 1.8,-0.14 2.69,-0.22 2.75,-0.21999 4.73,-0.55999 7.38,-1.44999 0.31,-15.39001 -0.14,-30.73 -0.88,-46.11 -0.59,-11.91 -1.11,-23.82001 -1.41,-35.75 -0.2,-8.11 -0.43,-16.23 -0.69,-24.35001 -0.17,-5.19 -0.35,-10.38999 -0.46,-15.58 -0.09,-5.03 -0.2,-10.05999 -0.38,-15.09 -0.07,-1.89999 -0.14,-3.79 -0.2,-5.69 -0.04,-4.3 -0.13,-8.57 -0.47,-12.86 -1,-7.47 -4.94,-11.64 -10.6,-16.32 -1.66,-1.29 -3.31,-2.59999 -4.9,-3.99 -34.29,-30.11999 -82.48,-49.34 -126.87,-58.63 -1.06,-0.21 -2.1,-0.41999 -3.14,-0.63 -37.01,-7.46 -72.67,-10.40999 -110.44,-10.21999 -1.15,0.01 -2.26,0.01 -3.38,0.02 z" />
    </clipPath>
  </defs>
  <sodipodi:namedview
     id="namedview2"
     pagecolor="#ffffff"
     bordercolor="#666666"
     borderopacity="1.0"
     inkscape:showpageshadow="2"
     inkscape:pageopacity="0.0"
     inkscape:pagecheckerboard="0"
     inkscape:deskcolor="#d1d1d1"
     showgrid="false"
     inkscape:zoom="0.4083045"
     inkscape:cx="722.5"
     inkscape:cy="722.5"
     inkscape:window-width="1536"
     inkscape:window-height="801"
     inkscape:window-x="0"
     inkscape:window-y="0"
     inkscape:window-maximized="1"
     inkscape:current-layer="svg2" />
  <title
     id="title1">Onetime Secret</title>
  <path
     d="m 0,0 c 476.85,0 953.7,0 1445,0 0,476.85 0,953.7 0,1445 -476.85,0 -953.7,0 -1445,0 C 0,968.15 0,491.3 0,0 Z"
     fill="#dc4a22"
     id="path1"
     clip-path="url(#clipPath2)"
     inkscape:path-effect="#path-effect3"
     inkscape:original-d="m 0,0 c 476.85,0 953.7,0 1445,0 0,476.85 0,953.7 0,1445 -476.85,0 -953.7,0 -1445,0 C 0,968.15 0,491.3 0,0 Z" />
</svg>
